<?xml version="1.0" ?><svg style="enable-background:new 0 0 48 48;" version="1.1" viewBox="0 0 48 48" xml:space="preserve" xmlns="http://www.w3.org/2000/svg" xmlns:xlink="http://www.w3.org/1999/xlink"><g id="Padding__x26__Artboard"/><g id="Icons"><g><path d="M16.94033,23.37939c0.29395,0.78223,1.79736,4.40332,4.45703,4.46387    c0.00244,0,0.00537,0,0.00781,0s0.00537,0,0.00781,0c2.66016-0.06055,4.16357-3.68164,4.45752-4.46387    c0.5376-0.28613,0.97266-0.91016,1.15576-1.67285c0.1958-0.81543,0.06104-1.59082-0.36035-2.07227    c-0.19971-0.22852-0.47266-0.44238-0.75244-0.64355c0.01807-0.14746,0.02734-0.30859,0.02734-0.48633    c0-2.49805-2.03271-4.5293-4.53076-4.5293c-2.50586,0-4.54492,2.03125-4.54492,4.5293c0,0.17969,0.00928,0.3418,0.02783,0.49121    c-0.24414,0.17383-0.53809,0.39844-0.74756,0.63867c-0.42187,0.48145-0.55664,1.25684-0.36084,2.07227    C15.96768,22.46924,16.40273,23.09326,16.94033,23.37939z" style="fill:#303030;"/><path d="M30.12588,29.41357l-4.37598-2.22461c-0.13037-0.06836-0.29004-0.0459-0.39697,0.05469    c-2.72314,2.52344-5.13867,2.51465-7.49951,0.0166c-0.11279-0.12012-0.2915-0.14551-0.43262-0.06055l-3.61523,2.13965    l-0.38428,0.22168c-0.01172,0.00684-0.02344,0.01367-0.03369,0.02148c-0.64355,0.46777-1.02783,1.21289-1.02783,1.99512    c0,1.34961,1.09131,2.44727,2.43311,2.44727h14.20996c1.34961,0,2.44775-1.09766,2.44775-2.44727    C31.45059,30.67822,30.94912,29.85205,30.12588,29.41357z" style="fill:#303030;"/><path d="M35.47139,18.81895c-0.16553-0.09863-0.37988-0.0459-0.48047,0.11816l-3.07373,5.0791    l-1.67432-1.69238c-0.13672-0.1377-0.35742-0.13867-0.49512-0.00293s-0.13867,0.35742-0.00293,0.49512l1.99023,2.01172    c0.06641,0.06738,0.15625,0.10352,0.24902,0.10352c0.01367,0,0.02734,0,0.04101-0.00195    c0.10742-0.0127,0.20264-0.07422,0.2583-0.16602l3.30615-5.46289C35.68966,19.13438,35.63692,18.91954,35.47139,18.81895z" style="fill:#303030;"/></g></g></svg>