<?xml version="1.0" ?><!DOCTYPE svg  PUBLIC '-//W3C//DTD SVG 1.1//EN'  'http://www.w3.org/Graphics/SVG/1.1/DTD/svg11.dtd'><svg enable-background="new 0 0 48 48" height="48px" version="1.1" viewBox="0 0 48 48" width="48px" xml:space="preserve" xmlns="http://www.w3.org/2000/svg" xmlns:xlink="http://www.w3.org/1999/xlink"><g id="Layer_3"><g><path d="M38.139,17.96v3.281c0,7.735-6.256,13.999-13.994,13.999h-0.289c-7.729,0-13.994-6.264-13.994-13.999    V17.96h-4.49v4.01c0,9.438,7.09,17.205,16.234,18.298v3.79h-4.574v3.859H31.17v-3.859h-4.775v-3.79    c9.15-1.088,16.234-8.859,16.234-18.298v-4.01H38.139z" fill="#241F20"/><path d="M16.459,21.704h0.397v3.683h-0.397h-2.09c1.679,3.59,5.294,6.091,9.522,6.091h0.218    c4.224,0,7.839-2.501,9.519-6.091h-2.482H30.75v-3.683h0.396h3.424c0.018-0.257,0.076-0.505,0.076-0.766v-3.319h-3.525v-3.683    h3.525v-3.318c0-0.262-0.059-0.507-0.076-0.766h-3.424V6.17h2.482c-1.68-3.585-5.295-6.087-9.519-6.087h-0.218    c-4.229,0-7.843,2.502-9.523,6.087h2.488v3.683H13.43c-0.019,0.259-0.077,0.504-0.077,0.766v3.318h3.478v3.683h-3.478v3.319    c0,0.261,0.059,0.509,0.077,0.766H16.459z" fill="#241F20"/></g></g></svg>